# xmcd CD database file generated by Grip 3.3.1
# 
# Track frame offsets:
#       150
#       14392
#       29515
#       43921
#       66316
#       78947
#       90609
#       100271
#       112946
#       124692
#       143462
#       164740
#       182169
#       198372
# 
# Disc length: 3112 seconds
# 
# Revision: 1
# Processed by: cddbd v1.5.2PL0 Copyright (c) Steve Scherf et al.
# Submitted via: Grip 3.3.1
# 
DISCID=bb0c260e
DTITLE=The Rhythm Junks - Virus B-23
DYEAR=2004
DGENRE=Jazz
TTITLE0=Power To Reality
TTITLE1=Supergroover
TTITLE2=Scatter Blather
TTITLE3=Canzoncina Per Jaco
TTITLE4=Amazing Glue
TTITLE5=Major Blue (I)
TTITLE6=Major Blue (II)
TTITLE7=Been So Wrong
TTITLE8=Boogiewaltz
TTITLE9=Don't Ever Loose That Rhythm
TTITLE10=Virus B-23
TTITLE11=Ostrogorzjsk
TTITLE12=Saco Saco
TTITLE13=Salut Monique
EXTD=YEAR: 2004
EXTT0=
EXTT1=
EXTT2=
EXTT3=
EXTT4=
EXTT5=
EXTT6=
EXTT7=
EXTT8=
EXTT9=
EXTT10=
EXTT11=
EXTT12=
EXTT13=
PLAYORDER=
